<svg xmlns="http://www.w3.org/2000/svg" id="Capa_1" data-name="Capa 1" viewBox="0 0 82 40"><defs><style>      .cls-1 {        fill: #ff0c81;      }      .cls-1, .cls-2, .cls-3, .cls-4 {        stroke-width: 0px;      }      .cls-2 {        fill: #11eefc;      }      .cls-3 {        fill: #fff;      }      .cls-4 {        fill: #ffd43d;      }    </style></defs><path class="cls-4" d="M73.4,19.7c0,2.9-2.2,5.3-5.3,5.3s-5.2-2.4-5.2-5.3,2.2-5.3,5.2-5.3,5.3,2.4,5.3,5.3h0Z"></path><path class="cls-1" d="M48.8,19.5c0,2.9-2.3,5.1-5.3,5.1s-5.2-2.2-5.2-5.1,2.3-5.1,5.2-5.1,5.3,2.2,5.3,5.1h0Z"></path><path class="cls-2" d="M20.1,25c3,0,5.3-2.4,5.3-5.3s-2.2-5.3-5.3-5.3-5.2,2.4-5.2,5.3,2.2,5.3,5.2,5.3h0Z"></path><path class="cls-3" d="M68.1,30.5c-6.3,0-11.1-4.9-11.1-10.9s4.9-10.8,11.1-10.8,11.2,4.9,11.2,10.8-4.9,10.9-11.2,10.9h0ZM68.1,25c3,0,5.3-2.4,5.3-5.3s-2.2-5.3-5.3-5.3-5.2,2.4-5.2,5.3,2.2,5.3,5.2,5.3h0ZM43.1,40c-4.8,0-8.5-2.1-10.4-5.9l4.9-2.7c.9,1.8,2.6,3.2,5.4,3.2s5.8-2.4,5.8-6.5v-.4c-1.1,1.4-3.1,2.5-6,2.5-5.8,0-10.4-4.5-10.4-10.6s4.8-10.8,11.1-10.8,11.2,4.6,11.2,10.8v8.3c0,7.3-5,12-11.7,12ZM43.5,24.7c2.9,0,5.3-2.2,5.3-5.1s-2.3-5.1-5.3-5.1-5.2,2.2-5.2,5.1,2.3,5.1,5.2,5.1ZM20.1,30.5c-6.3,0-11.1-4.9-11.1-10.9s4.9-10.8,11.1-10.8,11.2,4.9,11.2,10.8-4.9,10.9-11.2,10.9h0ZM20.1,25c3,0,5.3-2.4,5.3-5.3s-2.2-5.3-5.3-5.3-5.2,2.4-5.2,5.3,2.2,5.3,5.2,5.3h0ZM0,0h5.9v30H0V0ZM82,6.5c0,1.4-1.1,2.5-2.5,2.5s-2.5-1.1-2.5-2.5,1.1-2.5,2.5-2.5,2.5,1.1,2.5,2.5Z"></path></svg>